<svg width="27" height="26" viewBox="0 0 27 26" fill="none" xmlns="http://www.w3.org/2000/svg">
<path d="M13.3333 0C6.15355 0 0.333252 5.82029 0.333252 13C0.333252 20.1797 6.15355 26 13.3333 26C20.513 26 26.3333 20.1797 26.3333 13C26.3333 5.82029 20.513 0 13.3333 0ZM8.66138 5.16382C8.92922 5.14802 9.17132 5.30812 9.35486 5.59228L11.1322 8.96287C11.3193 9.36228 11.213 9.78993 10.9338 10.0753L10.1198 10.8894C10.0695 10.9582 10.0365 11.0358 10.0357 11.1211C10.3478 12.3295 11.2949 13.4442 12.1304 14.2108C12.9659 14.9774 13.8639 16.0152 15.0297 16.2611C15.1737 16.3013 15.3503 16.3157 15.4534 16.2199L16.3992 15.2566C16.7256 15.0091 17.1979 14.8892 17.5465 15.0916H17.5624L20.7695 16.9848C21.2403 17.2798 21.289 17.8502 20.952 18.1972L18.743 20.3887C18.4168 20.7232 17.9835 20.8357 17.5624 20.8362C15.7002 20.7804 13.9407 19.8664 12.4954 18.9271C10.1231 17.2013 7.94707 15.0608 6.58094 12.4747C6.057 11.3903 5.44152 10.0067 5.50025 8.7963C5.5055 8.34095 5.62869 7.89486 5.94936 7.60136L8.15834 5.39238C8.33042 5.24595 8.50065 5.17331 8.66138 5.16382Z" fill="#FBD784"/>
</svg>
