<svg width="21" height="21" viewBox="0 0 21 21" fill="none" xmlns="http://www.w3.org/2000/svg">
<path d="M10 12C10.5304 12 11.0391 11.7893 11.4142 11.4142C11.7893 11.0391 12 10.5304 12 10C12 9.46957 11.7893 8.96086 11.4142 8.58579C11.0391 8.21071 10.5304 8 10 8C9.46957 8 8.96086 8.21071 8.58579 8.58579C8.21071 8.96086 8 9.46957 8 10C8 10.5304 8.21071 11.0391 8.58579 11.4142C8.96086 11.7893 9.46957 12 10 12ZM4 10C3.99851 9.19577 4.15875 8.39946 4.47118 7.65839C4.78361 6.91733 5.24185 6.24666 5.81867 5.68624C6.39549 5.12583 7.0791 4.68711 7.82887 4.39619C8.57863 4.10526 9.37924 3.96806 10.1831 3.99274C10.9869 4.01742 11.7776 4.20347 12.5081 4.53985C13.2386 4.87623 13.894 5.35605 14.4354 5.9508C14.9767 6.54554 15.393 7.24307 15.6594 8.0019C15.9257 8.76073 16.0368 9.56538 15.986 10.368L13.326 13.028C14.1165 12.1589 14.5356 11.0152 14.494 9.84113C14.4523 8.6671 13.953 7.55594 13.1029 6.74513C12.2528 5.93433 11.1193 5.4882 9.94456 5.5021C8.76987 5.516 7.64721 5.98882 6.81651 6.81952C5.98582 7.65021 5.513 8.77287 5.4991 9.94756C5.4852 11.1223 5.93133 12.2558 6.74214 13.1059C7.55294 13.956 8.6641 14.4553 9.83813 14.497C11.0122 14.5386 12.1559 14.1195 13.025 13.329L10.49 15.864C10.45 15.904 10.41 15.946 10.372 15.988C9.5544 16.0388 8.73505 15.9216 7.96447 15.6437C7.19389 15.3657 6.48841 14.9329 5.89149 14.3718C5.29458 13.8108 4.8189 13.1335 4.49376 12.3816C4.16862 11.6297 4.00093 10.8192 4.001 10H4ZM9.998 1.5C12.0813 1.50007 14.092 2.26513 15.6485 3.64993C17.2049 5.03473 18.1986 6.94285 18.441 9.012C18.9623 8.96844 19.4864 9.04968 19.97 9.249C19.587 4.077 15.269 0 9.999 0C4.477 0 0 4.477 0 10C0 15.186 3.947 19.45 9 19.951C8.998 19.774 9.018 19.591 9.065 19.406L9.298 18.472C7.11394 18.288 5.08532 17.2676 3.63561 15.6238C2.1859 13.9799 1.42715 11.8396 1.51773 9.64967C1.60831 7.45975 2.54122 5.38943 4.12173 3.87089C5.70225 2.35236 7.8082 1.50296 10 1.5H9.998ZM17.098 10.67L11.198 16.57C10.8535 16.9142 10.6091 17.3456 10.491 17.818L10.034 19.648C9.98839 19.83 9.99068 20.0208 10.0407 20.2017C10.0906 20.3826 10.1866 20.5474 10.3192 20.6802C10.4518 20.813 10.6165 20.9092 10.7973 20.9595C10.9781 21.0098 11.1689 21.0123 11.351 20.967L13.181 20.509C13.6533 20.3912 14.0847 20.1472 14.429 19.803L20.329 13.901C20.7402 13.4692 20.9663 12.8937 20.9591 12.2975C20.9518 11.7012 20.7118 11.1315 20.2902 10.7098C19.8687 10.2881 19.2989 10.0478 18.7027 10.0404C18.1065 10.033 17.5309 10.2589 17.099 10.67H17.098Z" fill="#354147"/>
</svg>
