<svg width="22" height="28" viewBox="0 0 22 28" fill="none" xmlns="http://www.w3.org/2000/svg">
<path d="M10.9999 0C8.08356 0.00344047 5.28767 1.16347 3.22551 3.22563C1.16336 5.28778 0.0033301 8.08367 -0.000110367 11C-0.00360326 13.3832 0.77487 15.7018 2.21589 17.6C2.21589 17.6 2.51589 17.995 2.56489 18.052L10.9999 28L19.4389 18.047C19.4829 17.994 19.7839 17.6 19.7839 17.6L19.7849 17.597C21.2252 15.6996 22.0033 13.3821 21.9999 11C21.9964 8.08367 20.8364 5.28778 18.7743 3.22563C16.7121 1.16347 13.9162 0.00344047 10.9999 0ZM10.9999 15C10.2088 15 9.43541 14.7654 8.77761 14.3259C8.11981 13.8864 7.60712 13.2616 7.30437 12.5307C7.00162 11.7998 6.92241 10.9956 7.07675 10.2196C7.23109 9.44372 7.61205 8.73098 8.17146 8.17157C8.73087 7.61216 9.4436 7.2312 10.2195 7.07686C10.9955 6.92252 11.7997 7.00173 12.5306 7.30448C13.2615 7.60723 13.8862 8.11992 14.3258 8.77772C14.7653 9.43552 14.9999 10.2089 14.9999 11C14.9986 12.0605 14.5767 13.0771 13.8269 13.827C13.077 14.5768 12.0603 14.9987 10.9999 15Z" fill="#FBD784"/>
</svg>
