<?xml version="1.0" standalone="no"?><svg xmlns="http://www.w3.org/2000/svg" viewBox="0 0 1440 320"><path fill="#ffffff" fill-opacity="10" d="M0,160L40,144C80,128,160,96,240,74.7C320,53,400,43,480,53.3C560,64,640,96,720,117.3C800,139,880,149,960,181.3C1040,213,1120,267,1200,261.3C1280,256,1360,192,1400,160L1440,128L1440,320L1400,320C1360,320,1280,320,1200,320C1120,320,1040,320,960,320C880,320,800,320,720,320C640,320,560,320,480,320C400,320,320,320,240,320C160,320,80,320,40,320L0,320Z"></path></svg>